<?xml version="1.0" standalone="no"?> <!DOCTYPE svg PUBLIC "-//W3C//DTD SVG 20010904//EN" "http://www.w3.org/TR/2001/REC-SVG-20010904/DTD/svg10.dtd"> <svg version="1.0" xmlns="http://www.w3.org/2000/svg" width="600.000000pt" height="600.000000pt" viewBox="0 0 600.000000 600.000000" preserveAspectRatio="xMidYMid meet"> <g transform="translate(0.000000,600.000000) scale(0.050000,-0.050000)" fill="#2f38d7" stroke="none"> <path d="M7662 10918 c-209 -41 -409 -127 -602 -259 -167 -114 -2065 -2030 -2233 -2253 -644 -858 -284 -2124 709 -2498 202 -76 213 -72 391 122 l156 170 -107 0 c-571 0 -1062 516 -1091 1146 -23 495 75 693 624 1253 1408 1438 1734 1754 1891 1830 1173 566 2313 -793 1579 -1883 -36 -53 -237 -269 -446 -481 l-382 -385 -145 144 c-80 79 -148 140 -151 135 -4 -5 -23 -85 -42 -179 -20 -93 -74 -348 -121 -565 -50 -231 -76 -395 -64 -395 19 0 154 37 810 222 114 32 220 58 235 58 47 0 30 26 -111 170 l-139 140 371 380 c441 452 496 522 617 777 574 1210 -463 2604 -1749 2351z"/> <path d="M7510 9596 c-6 -15 -9 -145 -6 -287 l6 -259 85 -6 c85 -6 85 -7 85 -86 l0 -79 205 5 205 6 6 74 c6 71 9 74 90 80 l84 6 6 275 5 275 -335 0 c-185 0 -356 6 -381 13 -29 7 -48 2 -55 -17z"/> <path d="M6053 8715 l-155 -165 106 -17 c948 -149 1362 -1167 811 -1993 -73 -108 -1754 -1802 -1925 -1939 -628 -502 -1577 -301 -1945 413 -240 465 -197 1009 110 1397 85 107 708 749 727 749 6 0 78 -64 159 -143 175 -172 150 -206 258 343 45 226 94 468 110 540 15 71 26 131 25 133 -2 2 -206 -55 -454 -125 -247 -71 -493 -139 -545 -150 -120 -27 -121 -23 45 -188 l140 -139 -377 -380 c-591 -597 -744 -919 -717 -1501 58 -1259 1444 -2004 2526 -1358 136 81 295 231 1131 1066 1003 1002 1086 1096 1208 1373 101 228 154 501 143 739 -31 689 -520 1345 -1104 1478 -33 8 -74 18 -91 23 -19 6 -88 -53 -186 -156z"/> <path d="M5593 7727 c-7 -8 -13 -134 -13 -280 l0 -267 90 0 90 0 0 -80 0 -80 210 0 210 0 0 80 0 80 80 0 80 0 0 280 0 280 -367 0 c-201 0 -372 -6 -380 -13z"/> <path d="M3740 5700 l0 -280 90 0 c90 0 90 0 90 -70 l0 -70 200 0 200 0 0 70 c0 70 0 70 90 70 l90 0 0 280 0 280 -380 0 -380 0 0 -280z"/> </g> </svg>